<svg xmlns="http://www.w3.org/2000/svg" viewBox="0 0 169.3 182.4"><linearGradient id="a" gradientUnits="userSpaceOnUse" x1="-14.193" y1="-263.751" x2="104.057" y2="-103.001" gradientTransform="matrix(1 0 0 -1 0 -114)"><stop offset=".249" stop-color="#f58b1f"/><stop offset="1" stop-color="#ffcb1a"/></linearGradient><path opacity=".05" fill="url(#a)" d="M7.7 123.1l.2-11.4c.1-3.6.4-7.2 1-10.8l2.2-12.7 7.4 10.5c2.1 3 3.9 6.1 5.5 9.3l5 10.2-21.3 4.9zM12 91.8l-1.7 9.4c-.6 3.5-1 7-1 10.6l-.2 9.6 17.8-4.1-4.2-8.6c-1.5-3.2-3.3-6.2-5.4-9.1L12 91.8z"/><linearGradient id="b" gradientUnits="userSpaceOnUse" x1="122.903" y1="-309.156" x2="241.153" y2="-148.406" gradientTransform="matrix(1 0 0 -1 0 -114)"><stop offset=".249" stop-color="#f58b1f"/><stop offset="1" stop-color="#ffcb1a"/></linearGradient><path opacity=".05" fill="url(#b)" d="M144.8 168.5l.2-11.4c.1-3.6.4-7.2 1-10.8l2.2-12.7 7.4 10.5c2.1 3 3.9 6.1 5.5 9.3l5 10.2-21.3 4.9zm4.3-31.3l-1.7 9.4c-.6 3.5-1 7-1 10.6l-.2 9.6 17.8-4.1-4.2-8.6c-1.5-3.2-3.3-6.2-5.4-9.1l-5.3-7.8z"/><linearGradient id="c" gradientUnits="userSpaceOnUse" x1="25.338" y1="-292.831" x2="143.588" y2="-132.081" gradientTransform="matrix(1 0 0 -1 0 -114)"><stop offset=".249" stop-color="#f58b1f"/><stop offset="1" stop-color="#ffcb1a"/></linearGradient><path opacity=".05" fill="url(#c)" d="M95.8 86.4c-.7 0-1.3-.2-1.9-.5-.9-.5-1.4-1.4-1.6-2.4-.3-2.5 4.5-4.8 5.4-5.3.1-.1.2-.1.4-.1.4 0 .7.2.8.6.1 1 .6 6.3-1.7 7.3-.1.1-.3.1-.4.2-.3.2-.6.2-1 .2zm1.9-6.6c-1.8.9-4 2.4-3.9 3.4.1.6.4 1.1.9 1.4s1.1.4 1.7.2c.1 0 .2-.1.3-.1.9-.3 1.1-2.8 1-4.9z"/><linearGradient id="d" gradientUnits="userSpaceOnUse" x1="78.493" y1="-225.292" x2="196.743" y2="-64.543" gradientTransform="matrix(1 0 0 -1 0 -114)"><stop offset=".249" stop-color="#f58b1f"/><stop offset="1" stop-color="#ffcb1a"/></linearGradient><path opacity=".05" fill="url(#d)" d="M149 18.8c-.7 0-1.3-.2-1.9-.5-.9-.5-1.4-1.4-1.6-2.4-.3-2.5 4.5-4.8 5.4-5.3.1-.1.2-.1.4-.1.4 0 .7.2.8.6.1 1 .6 6.3-1.7 7.3-.1.1-.3.1-.4.2-.3.2-.7.2-1 .2zm1.8-6.5c-1.8.9-4 2.4-3.9 3.4.1.6.4 1.1.9 1.4s1.1.4 1.7.2c.1 0 .2-.1.3-.1.9-.4 1.1-2.9 1-4.9z"/><linearGradient id="e" gradientUnits="userSpaceOnUse" x1="21.349" y1="-284.922" x2="139.599" y2="-124.172" gradientTransform="matrix(1 0 0 -1 0 -114)"><stop offset=".249" stop-color="#f58b1f"/><stop offset="1" stop-color="#ffcb1a"/></linearGradient><path opacity=".05" fill="url(#e)" d="M64.9 117c-2.7-.1-4.1-5.2-4.4-6.2v-.4c0-.4.4-.7.7-.7 1.1.1 6.3.5 7 2.9 0 .1.1.3.1.4.1 1-.2 2-.9 2.8-.6.8-1.5 1.2-2.5 1.2zm-2.8-5.8c.6 2 1.7 4.3 2.7 4.4.6 0 1.2-.2 1.6-.7.4-.4.6-1.1.5-1.7 0-.1 0-.2-.1-.3-.1-.8-2.6-1.4-4.7-1.7z"/><linearGradient id="f" gradientUnits="userSpaceOnUse" x1="4.948" y1="-329.023" x2="123.198" y2="-168.273" gradientTransform="matrix(1 0 0 -1 0 -114)"><stop offset=".249" stop-color="#f58b1f"/><stop offset="1" stop-color="#ffcb1a"/></linearGradient><path opacity=".05" fill="url(#f)" d="M48.5 161.1c-2.7-.1-4.1-5.2-4.4-6.2v-.4c0-.4.4-.7.7-.7 1.1.1 6.3.5 7 2.9 0 .1.1.3.1.4.1 1-.2 2-.9 2.8-.6.8-1.6 1.2-2.5 1.2zm-2.8-5.8c.6 2 1.7 4.3 2.7 4.4.6 0 1.2-.2 1.6-.7.4-.4.6-1.1.5-1.7 0-.1 0-.2-.1-.3-.2-.9-2.7-1.5-4.7-1.7z"/><linearGradient id="g" gradientUnits="userSpaceOnUse" x1="-1006.46" y1="643.326" x2="-843.202" y2="865.26" gradientTransform="rotate(-97.077 -711.81 25.35)"><stop offset=".249" stop-color="#f58b1f"/><stop offset="1" stop-color="#ffcb1a"/></linearGradient><path opacity=".05" fill="url(#g)" d="M14.3 172.4v.1c.2 2.6-4.7 4.6-5.7 5-.1 0-.3.1-.4 0-.4 0-.7-.3-.8-.7-.1-1.1-.3-6.4 2-7.3.1-.1.3-.1.4-.1 1-.3 2-.1 2.9.5 1 .7 1.5 1.5 1.6 2.5zm-5.4 3.5c1.9-.9 4.1-2.3 4-3.2 0-.6-.4-1.1-.9-1.5s-1.1-.5-1.7-.3c-.1 0-.2.1-.3.1-.8.3-1.1 2.8-1.1 4.9z"/><linearGradient id="h" gradientUnits="userSpaceOnUse" x1="14.144" y1="-283.603" x2="132.394" y2="-122.853" gradientTransform="matrix(1 0 0 -1 0 -114)"><stop offset=".249" stop-color="#f58b1f"/><stop offset="1" stop-color="#ffcb1a"/></linearGradient><path opacity=".05" fill="url(#h)" d="M44.2 132.1c-.7 0-1.3-.2-1.9-.5-.9-.5-1.4-1.4-1.6-2.4-.3-2.5 4.5-4.8 5.4-5.3.1-.1.2-.1.4-.1.4 0 .7.2.8.6.1 1 .6 6.3-1.7 7.3-.1.1-.3.1-.4.2-.3.2-.7.2-1 .2zm1.8-6.6c-1.8.9-4 2.5-3.9 3.4.1.6.4 1.1.9 1.4.5.3 1.1.4 1.7.2.1 0 .2-.1.3-.1.9-.3 1.1-2.8 1-4.9z"/><linearGradient id="i" gradientUnits="userSpaceOnUse" x1="-862.128" y1="844.356" x2="-776.106" y2="961.295" gradientTransform="matrix(.02251 -.9998 .9998 .02251 -720.488 -683.36)"><stop offset=".249" stop-color="#f58b1f"/><stop offset="1" stop-color="#ffcb1a"/></linearGradient><path opacity=".05" fill="url(#i)" d="M138.9 176.8c0 .7-.2 1.3-.6 1.9-.6.8-1.5 1.4-2.5 1.5-2.6.3-4.7-4.6-5.1-5.5-.1-.1-.1-.3 0-.4 0-.4.3-.7.6-.8 1.1-.1 6.3-.5 7.3 1.9.1.1.1.3.1.4.1.3.2.6.2 1zm-6.6-2c.9 1.9 2.4 4 3.3 3.9.6-.1 1.1-.4 1.5-.9.3-.5.4-1.1.3-1.7 0-.1-.1-.2-.1-.3-.4-.8-2.9-1.1-5-1z"/><linearGradient id="j" gradientUnits="userSpaceOnUse" x1="-10.836" y1="-266.221" x2="107.414" y2="-105.471" gradientTransform="matrix(1 0 0 -1 0 -114)"><stop offset=".249" stop-color="#f58b1f"/><stop offset="1" stop-color="#ffcb1a"/></linearGradient><path opacity=".05" fill="url(#j)" d="M70.8 44.6c-.7 0-1.3-.2-1.9-.5-.9-.5-1.4-1.4-1.6-2.4-.3-2.5 4.5-4.8 5.4-5.3.1-.1.2-.1.4-.1.4 0 .7.2.8.6.1 1 .6 6.3-1.7 7.3-.1.1-.3.1-.4.2-.3.2-.7.2-1 .2zm1.8-6.6c-1.8.9-4 2.4-3.9 3.4.1.6.4 1.1.9 1.4.5.3 1.1.4 1.7.2.1 0 .2-.1.3-.1.9-.3 1.1-2.8 1-4.9z"/><linearGradient id="k" gradientUnits="userSpaceOnUse" x1="70.251" y1="-325.869" x2="188.501" y2="-165.119" gradientTransform="matrix(1 0 0 -1 0 -114)"><stop offset=".249" stop-color="#f58b1f"/><stop offset="1" stop-color="#ffcb1a"/></linearGradient><path opacity=".05" fill="url(#k)" d="M140.3 120c-.7 0-1.3-.2-1.9-.5-.9-.5-1.4-1.4-1.6-2.4-.3-2.5 4.5-4.8 5.4-5.3.1-.1.2-.1.4-.1.4 0 .7.2.8.6.1 1 .6 6.3-1.7 7.3-.1.1-.3.1-.4.2-.3.1-.7.2-1 .2zm1.8-6.6c-1.8.9-4 2.5-3.9 3.4.1.6.4 1.1.9 1.4s1.1.4 1.7.2c.1 0 .2-.1.3-.1.9-.3 1.1-2.9 1-4.9z"/><linearGradient id="l" gradientUnits="userSpaceOnUse" x1="60.573" y1="-319.373" x2="178.823" y2="-158.623" gradientTransform="matrix(1 0 0 -1 0 -114)"><stop offset=".249" stop-color="#f58b1f"/><stop offset="1" stop-color="#ffcb1a"/></linearGradient><path opacity=".05" fill="url(#l)" d="M166.1 102.9l-58.6-2.3 35-43.9 23.6 46.2zm-55.7-3.6l53.4 2.1-21.4-42-32 39.9z"/><linearGradient id="m" gradientUnits="userSpaceOnUse" x1="61.464" y1="-314.134" x2="179.714" y2="-153.384" gradientTransform="matrix(1 0 0 -1 0 -114)"><stop offset=".249" stop-color="#f58b1f"/><stop offset="1" stop-color="#ffcb1a"/></linearGradient><path opacity=".05" fill="url(#m)" d="M92 181.7c-7.9 0-15.2-2.8-20.2-8.5-5.3-5.9-7.4-14-5.9-22.8 3.8-18.8 19.5-32.8 38.6-34.4 8.9-.5 16.7 2.5 22 8.5 5.3 5.9 7.4 14 5.9 22.8-1.7 9.2-6.5 17.5-13.6 23.6-8 7.2-17.8 10.8-26.8 10.8zm14.2-64.3h-1.7C86.1 119 71 132.6 67.3 150.7c-1.4 8.4.6 16.1 5.6 21.6 10.3 11.6 30.5 10.5 45-2.5 6.8-5.9 11.4-13.9 13.1-22.8 1.4-8.4-.6-16.1-5.6-21.6-4.6-5.2-11.4-8-19.2-8z"/><linearGradient id="n" gradientUnits="userSpaceOnUse" x1="-124.545" y1="308.407" x2="238.693" y2="802.196" gradientTransform="translate(0 -608)"><stop offset=".249" stop-color="#f58b1f"/><stop offset="1" stop-color="#ffcb1a"/></linearGradient><path opacity=".05" fill="url(#n)" d="M158.4 42.1c-.6-1.7-2.4-2.7-4.1-2.2-1.5.5-2.5 2-2.3 3.6v.3c.3 1-.2 2.1-1.2 2.4s-2.1-.2-2.4-1.2c0 0 0-.1-.1-.1-.7-1.7-2.6-2.5-4.3-1.8-1.4.6-2.3 2.1-2 3.6v.2c.3 1-.2 2.1-1.2 2.4s-2.1-.2-2.4-1.2c0 0 0-.1-.1-.1-.7-1.7-2.6-2.5-4.3-1.8-1.4.6-2.3 2-2 3.6v.3c.3 1-.2 2.1-1.2 2.4-1 .3-2.1-.2-2.4-1.2 0 0 0-.1-.1-.1-.7-1.7-2.6-2.5-4.3-1.8-1.4.6-2.3 2-2 3.6v.3c.3 1-.2 2.1-1.2 2.4s-2.1-.2-2.4-1.2c0-.1-.1-.2-.1-.2-.8-1.6-2.8-2.3-4.4-1.5-1.3.6-2 2-1.8 3.5v.3c.3 1-.2 2.1-1.2 2.4-1 .3-2-.2-2.4-1.2-.1-.4-.5-.6-.9-.5s-.6.5-.5.9c.5 1.7 2.4 2.7 4.1 2.2 1.5-.5 2.5-2 2.3-3.6v-.3c-.3-1 .2-2.1 1.2-2.4s2.1.2 2.4 1.2c0 .1.1.1.1.2.5 1.2 1.7 1.9 3 1.9 1.8 0 3.3-1.5 3.3-3.3v-.8c-.3-1 .2-2.1 1.2-2.4 1-.3 2.1.2 2.4 1.2v.1c.7 1.7 2.6 2.5 4.3 1.9 1.4-.6 2.3-2 2.1-3.6v-.3c-.3-1 .2-2.1 1.2-2.4 1-.3 2.1.2 2.4 1.2v.1c.7 1.7 2.6 2.5 4.3 1.9 1.4-.6 2.3-2 2.1-3.6v-.3c-.3-1 .2-2.1 1.2-2.4 1-.3 2.1.2 2.4 1.2v.1c.7 1.7 2.6 2.5 4.3 1.9 1.4-.6 2.3-2 2.1-3.6V44c-.3-1 .2-2.1 1.2-2.4s2.1.2 2.4 1.2c.1.4.5.6.9.5.3-.5.5-.9.4-1.2z"/><linearGradient id="o" gradientUnits="userSpaceOnUse" x1="-6.603" y1="-110.725" x2="356.635" y2="383.065" gradientTransform="rotate(38.538 474.738 -141.853)"><stop offset=".249" stop-color="#f58b1f"/><stop offset="1" stop-color="#ffcb1a"/></linearGradient><path opacity=".05" fill="url(#o)" d="M87 26.1c.7-1.7-.2-3.6-1.9-4.3-1.5-.6-3.2 0-4 1.4-.1.1-.1.1-.1.2-.4 1-1.5 1.5-2.4 1.1-1-.4-1.5-1.5-1.1-2.4V22c.5-1.7-.5-3.6-2.2-4.1-1.5-.4-3.1.2-3.8 1.5-.1.1-.1.1-.1.2-.4 1-1.5 1.5-2.4 1.1s-1.5-1.5-1.1-2.4v-.1c.5-1.7-.5-3.6-2.2-4.1-1.5-.4-3 .2-3.8 1.5-.1.1-.1.1-.1.2-.4 1-1.5 1.5-2.4 1.1-1-.4-1.5-1.5-1.1-2.4v-.1c.5-1.7-.5-3.6-2.2-4.1-1.5-.4-3 .2-3.8 1.5-.1.1-.1.1-.1.2-.4 1-1.5 1.5-2.4 1.1-1-.4-1.5-1.5-1.1-2.4v-.3c.4-1.8-.7-3.5-2.5-3.9-1.7-.4-3.2.3-3.9 1.5-.1.1-.1.1-.1.2-.4 1-1.5 1.5-2.4 1.1-1-.4-1.5-1.5-1.1-2.4.1-.4 0-.8-.4-.9s-.8 0-.9.4c-.7 1.7.2 3.6 1.9 4.3 1.5.6 3.2 0 4-1.4.1-.1.1-.1.1-.2.4-1 1.5-1.5 2.4-1.1 1 .4 1.5 1.5 1.1 2.4v.2c-.3 1.2.2 2.6 1.2 3.4 1.4 1.1 3.5.9 4.6-.5.1-.1.2-.3.3-.4.1-.1.1-.1.1-.2.4-1 1.5-1.5 2.4-1.1 1 .4 1.5 1.5 1.1 2.4v.1c-.5 1.7.4 3.6 2.2 4.1 1.5.5 3.1-.2 3.8-1.5.1-.1.1-.1.1-.2.4-1 1.5-1.5 2.4-1.1 1 .4 1.5 1.5 1.1 2.4v.1c-.5 1.7.4 3.6 2.2 4.1 1.5.5 3.1-.2 3.8-1.5.1-.1.1-.1.1-.2.4-1 1.5-1.5 2.4-1.1 1 .4 1.5 1.5 1.1 2.4v.1c-.5 1.7.4 3.6 2.2 4.1 1.5.5 3.1-.2 3.8-1.5.1-.1.1-.1.1-.2.4-1 1.5-1.5 2.4-1.1 1 .4 1.5 1.5 1.1 2.4-.1.4 0 .8.4.9.6.1 1 0 1.2-.4z"/><g opacity=".05"><linearGradient id="p" gradientUnits="userSpaceOnUse" x1="-585.371" y1="-171.246" x2="690.522" y2="1563.214" gradientTransform="translate(0 -608)"><stop offset=".249" stop-color="#f58b1f"/><stop offset="1" stop-color="#ffcb1a"/></linearGradient><path fill="url(#p)" d="M99.8 100.9c-2.8-1-5.8.2-7.1 2.8-.1.1-.1.2-.2.2-.8 2.3-3.3 3.5-5.6 2.7s-3.5-3.3-2.7-5.6v-.3c.6-3.2-1.4-6.2-4.6-6.9-2.6-.5-5.2.7-6.4 3.1-.1.1-.1.2-.2.2-.8 2.3-3.3 3.5-5.6 2.7-2.3-.8-3.5-3.3-2.7-5.6v-.1c.9-3.1-.9-6.3-4-7.2-2.7-.8-5.5.5-6.8 3-.1.1-.1.2-.2.2-.8 2.3-3.3 3.5-5.6 2.7s-3.5-3.3-2.7-5.6v-.1c.9-3.1-.9-6.3-4-7.2-2.7-.8-5.5.5-6.8 3-.1.1-.1.2-.2.2-.8 2.3-3.3 3.5-5.6 2.7s-3.5-3.3-2.7-5.6v-.1c.9-3.1-.9-6.3-4-7.2-2.7-.8-5.5.5-6.8 3-.1.1-.1.2-.2.2-.8 2.3-3.3 3.5-5.6 2.7S6 75.5 6.8 73.2c.1-.4-.1-.8-.4-.9-.4-.1-.8.1-.9.4-1.1 3 .5 6.4 3.6 7.4 2.8 1 5.8-.2 7.1-2.8.1-.1.1-.2.2-.2.8-2.3 3.3-3.5 5.6-2.7s3.5 3.3 2.7 5.6v.2c-.8 3.1 1.1 6.3 4.2 7.1 2.6.7 5.4-.6 6.7-3 .1-.1.1-.2.2-.3.8-2.3 3.3-3.5 5.6-2.7s3.5 3.3 2.7 5.6v.1c-.9 3.1.9 6.3 4 7.2 2.7.8 5.5-.5 6.8-3 .1-.1.1-.2.2-.3.8-2.3 3.3-3.5 5.7-2.7 2.3.8 3.5 3.3 2.7 5.7v.2c-.8 3.1 1.1 6.3 4.2 7.1 2.6.7 5.4-.6 6.7-3 .1-.1.1-.2.2-.3.8-2.3 3.3-3.5 5.6-2.7 2.3.8 3.5 3.3 2.7 5.6v.3c-.6 3.2 1.4 6.2 4.5 6.9 2.6.5 5.2-.7 6.4-3.1.1-.1.1-.2.2-.3.8-2.3 3.3-3.5 5.6-2.7s3.5 3.3 2.7 5.6c-.1.4.1.8.4.9s.8-.1.9-.4c.8-2.7-.8-6.1-3.8-7.1z"/></g><linearGradient id="q" gradientUnits="userSpaceOnUse" x1="6.509" y1="-281.883" x2="124.759" y2="-121.133" gradientTransform="matrix(1 0 0 -1 0 -114)"><stop offset=".249" stop-color="#f58b1f"/><stop offset="1" stop-color="#ffcb1a"/></linearGradient><path opacity=".05" fill="url(#q)" d="M99.8 45.9c-1.5 0-3-.1-4.4-.4l-.8-.2 18.2-40.6.7.8c5.2 6.3 7.4 14.6 6 22.7-1.2 6.7-4.1 11.7-8.5 14.6-3.4 2.1-7.2 3.2-11.2 3.1zm-3.2-1.6c2.2.3 8.4.8 13.5-2.6 4.1-2.7 6.8-7.3 7.9-13.7 1.2-7.2-.6-14.7-4.9-20.6L96.6 44.3z"/><linearGradient id="r" gradientUnits="userSpaceOnUse" x1="-272.233" y1="-391.245" x2="-191.662" y2="-281.717" gradientTransform="rotate(114.01 -234.16 2.91)"><stop offset=".249" stop-color="#f58b1f"/><stop offset="1" stop-color="#ffcb1a"/></linearGradient><path opacity=".05" fill="url(#r)" d="M12.7 140.7c.6-1.4 1.3-2.6 2.2-3.8l.5-.7L45 169.3l-1 .3c-7.9 2.2-16.3.8-23.1-3.8-5.7-3.8-9-8.5-9.9-13.7-.6-3.9 0-7.8 1.7-11.4zm2.8-2.3c-1.2 1.9-4.1 7.3-3.1 13.4.8 4.9 3.9 9.2 9.3 12.8 6.1 4 13.6 5.4 20.8 3.9l-27-30.1z"/><linearGradient id="s" gradientUnits="userSpaceOnUse" x1="6.127" y1="-273.564" x2="124.376" y2="-112.814" gradientTransform="matrix(1 0 0 -1 0 -114)"><stop offset=".249" stop-color="#f58b1f"/><stop offset="1" stop-color="#ffcb1a"/></linearGradient><path opacity=".05" fill="url(#s)" d="M71.1 78.9c-5.1 0-9.4-2.4-10.8-6.4-1.8-5.4 2.6-11.7 9.8-14.2 7.2-2.4 14.6 0 16.4 5.4.8 2.9.3 6-1.6 8.3-2.1 2.8-5 4.8-8.3 5.9-1.7.6-3.6 1-5.5 1zm4.7-20.1c-1.8 0-3.5.3-5.2.9-6.5 2.2-10.5 7.7-8.9 12.4s8.1 6.7 14.6 4.5c3-.9 5.7-2.8 7.5-5.3 1.6-2 2.1-4.6 1.4-7-1.2-3.5-4.9-5.5-9.4-5.5z"/><linearGradient id="t" gradientUnits="userSpaceOnUse" x1="-38.166" y1="-244.847" x2="80.085" y2="-84.097" gradientTransform="matrix(1 0 0 -1 0 -114)"><stop offset=".249" stop-color="#f58b1f"/><stop offset="1" stop-color="#ffcb1a"/></linearGradient><path opacity=".05" fill="url(#t)" d="M30.1 62.3C16.7 62.3 5.9 51.5 5.9 38s10.9-24.3 24.3-24.3S54.4 24.6 54.4 38 43.5 62.3 30.1 62.3zm0-47.1C17.5 15.2 7.3 25.4 7.3 38s10.2 22.9 22.9 22.9S53 50.7 53 38c0-12.6-10.2-22.8-22.9-22.8z"/></svg>