<svg xmlns="http://www.w3.org/2000/svg" viewBox="0 0 495.4 495.4" width="25" height="25"><path d="M116.2 471.8c-43.2 0-78.4-37-78.4-82.6s35.2-82.6 78.4-82.6c17.6 0 33.6 6.4 46.7 16.7l-46.6 50.9h-.1c-8 0-14.4 6.7-14.4 15.1 0 8.3 6.4 15.1 14.4 15.1 4.2 0 7.9-1.9 10.5-4.9h44.4l3.3-20.2h-35.2l37.9-41.3c1.1 1.5 2.4 2.8 3.4 4.4l1.6-9.9 3-18.2-3.8-10.9-2.6 2.8c-17.3-14.2-38.9-23-62.5-23-56.2 0-101.9 47.6-101.9 106.2 0 58.5 45.7 106.2 101.9 106.2 34.1 0 64.1-17.7 82.6-44.5-7.9-2.3-14.7-6.8-19.7-12.8-14.3 20.1-37 33.5-62.9 33.5zM314.5 94.3c26 0 47.2-21.1 47.2-47.2S340.5 0 314.5 0c-26 0-47.2 21.1-47.2 47.2s21.2 47.1 47.2 47.1z"/><path d="M379.2 283.1c-2.7 0-5.2.6-7.8.8l-9.9-58.1c-4.7 1.9-9.8 3-15.2 3h-4.8l5.1 29.9-16.7-.1c1.3-2.8 2.2-4.4 2.8-8 2.3-14.1-7.7-26.4-19.9-28.7l-55.3-10.7 4.2-10.2c4.5 7.6 12.5 12.6 21.5 12.6h63.2c13.9 0 25.2-11.3 25.2-25.2 0-13.9-11.3-25.1-25.2-25.1H300l-11.4-27.9.9-2.3c7.9-19.3-1.3-41.3-20.6-49.2-19.3-7.9-41.3 1.3-49.2 20.6-10.6 25.9-37.7 91.7-43.9 106.8-4.1 9.9-3.6 20.6.5 29.7 0 0-14.7.1-14.9.1-8.1.4-14.5 6.9-14.5 15 0 8.4 6.8 15.2 15.2 15.2h24.4l14.5 41.5-15.7 95.4c-2.3 13.7 7 26.7 20.7 28.9 13.8 2.3 26.7-7.1 28.9-20.7l16.7-101.7c.7-4.1.3-8.4-1.1-12.4l-15.4-44.2 33.4 6.3-10 14.5 6.4 18.4c2.2 6.4 2.8 13.2 1.7 19.9l-5.1 31.1-6.1 37.2 28-31.2c-3.7 11-6.2 22.7-6.2 35.1 0 58.5 45.7 106.2 101.9 106.2S481 448 481 389.4c.1-58.7-45.7-106.3-101.8-106.3zm-29.1-3.5l1.4 8c-4 1.2-8.1 2.2-11.9 3.9l10.5-11.9zm-33.9-.8h7.4l-32.2 36 24.8-36zm63 193c-43.2 0-78.4-37-78.4-82.6 0-36.8 23.1-67.7 54.7-78.3l12 70c-1.6 2.4-2.7 5.2-2.7 8.3 0 8.3 6.4 15.1 14.4 15.1 7.9 0 14.4-6.7 14.4-15.1 0-5-2.5-9.3-6.2-12l-12-70.2c1.3-.1 2.5-.4 3.8-.4 43.2 0 78.4 37 78.4 82.6-.1 45.6-35.2 82.6-78.4 82.6z"/></svg>