<svg xmlns="http://www.w3.org/2000/svg" viewBox="0 0 512 512" width="25" height="25"><path d="M130.9 511.7c5.5-1 10.1-4.8 12.1-10.1l36.2-96.6c31.3 29 80.3 28.5 110.8-1.9L403.1 290c28.4-28.4 29.8-76.6 4.7-107.3l92.2-23.1c5.4-1.3 9.7-5.4 11.4-10.8 1.5-5.4.4-11.1-3.3-15.3L396 5.5c-3.7-4.3-9.4-6.2-14.9-5.2S371 5.2 369 10.4L332.8 107c-31.3-29-80.3-28.5-110.7 2L108.9 222.1c-15.1 15.1-23.4 35.2-23.4 56.6 0 18.8 6.8 36.5 18.7 50.8l-92.1 23.1c-5.4 1.3-9.7 5.4-11.4 10.7-.4 1.5-.7 3.1-.7 4.7 0 3.8 1.4 7.6 4 10.5l112 128c3.7 4.3 9.4 6.2 14.9 5.2zm258.7-465l77.1 88.2-84.4 21.1-24.4-24.5 31.7-84.8zm-258 265.9c-18.1-18.1-18.1-49.8 0-67.9l113.1-113.1c18.7-18.7 49.2-18.7 67.9 0l67.9 67.9c9.1 9.1 14 21.1 14 34s-5 24.8-14 33.9L267.3 380.5c-18.7 18.7-49.2 18.7-67.9 0l-15.3-15.3-.7-.7-51.8-51.9zm-86.3 64.5l84.4-21.2 24.5 24.5-31.8 84.9-77.1-88.2z"/></svg>