<svg xmlns="http://www.w3.org/2000/svg" viewBox="0 0 451.8 512"><path d="M360.9 307.1c-11.6-53.6-53.3-96.1-106.5-108.8 24.5-20.6 40-51.5 40-85.9C294.4 50.4 244 0 182.1 0c-62 0-112.4 50.4-112.4 112.4 0 34.4 15.6 65.3 40 85.9C46.9 213.2 0 269.9 0 337.3v111.4h254.1c15.5 37.1 52.2 63.3 94.9 63.3 56.7 0 102.8-46.1 102.8-102.8 0-52.7-39.8-96.2-90.9-102.1zM100.1 112.4c0-45.2 36.8-82 82-82s82 36.8 82 82-36.8 82-82 82-82-36.8-82-82zm146.1 296.8c0 3.1.1 6.2.4 9.2H30.4v-81.1c0-62.1 50.5-112.6 112.6-112.6h78.3c52 0 95.9 35.4 108.7 83.4-47.7 9-83.8 50.9-83.8 101.1zM349 481.6c-40 0-72.5-32.5-72.5-72.5s32.5-72.5 72.5-72.5 72.5 32.5 72.5 72.5-32.5 72.5-72.5 72.5z"/><path d="M364.2 366.7h-30.4V394h-27.3v30.4h27.3v27.3h30.4v-27.3h27.3V394h-27.3v-27.3z"/></svg>