<svg class="glass-svg" xmlns="http://www.w3.org/2000/svg" viewBox="0 0 512 512" width="25" height="25"><path fill="#FFF" stroke="#ACACB2" stroke-width="25" stroke-linecap="round" stroke-linejoin="round" stroke-miterlimit="10" d="M80.9 13.2l44 485.6h267l47-485.6z"/><path class="glass-svg-fill" fill="#00A3D9" d="M101.2 97.8c11.3 129.6 22.7 259.1 34 388.7h246.1c10.9-115.5 21.9-231 32.8-346.6-46.8 16.8-79.9 13.2-101.8 6.6-46.1-13.8-53-44.4-110.6-57.9-37.5-8.8-64.7-2.9-74.4-.4-11.1 2.9-20 6.6-26.1 9.6z"/><path class="glass-svg-middle" fill="#00A3D9" d="M117.1 274.3c6.4 70.7 12.8 141.5 19.2 212.2h246.1l15.9-183.9c-37.3 6.6-66.2 4.2-84.9 1.2-46.2-7.5-57.6-23.6-110.6-31.1-23-3.3-47.8-4.1-74.4-.2-4.7.6-8.6 1.3-11.3 1.8z"/></svg>