<svg xmlns="http://www.w3.org/2000/svg" viewBox="0 0 301 301" width="25" height="25"><path d="M296.1 128.4h-17v-22.9c0-2.7-2.2-4.9-4.9-4.9h-27.5V77.7c0-2.7-2.2-4.9-4.9-4.9h-32.4c-2.7 0-4.9 2.2-4.9 4.9v50.7h-109V77.7c0-2.7-2.2-4.9-4.9-4.9H58.2c-2.7 0-4.9 2.2-4.9 4.9v22.9H25.9c-2.7 0-4.9 2.2-4.9 4.9v22.9H4.9c-2.7 0-4.9 2.2-4.9 4.9V167c0 2.7 2.2 4.9 4.9 4.9h16.2v23.7c0 2.7 2.2 4.9 4.9 4.9h27.5v22.9c0 2.7 2.2 4.9 4.9 4.9h32.4c2.7 0 4.9-2.2 4.9-4.9v-51.5h109.1v51.5c0 2.7 2.2 4.9 4.9 4.9h32.4c2.7 0 4.9-2.2 4.9-4.9v-22.9h27.5c2.7 0 4.9-2.2 4.9-4.9v-23.7h17c2.7 0 4.9-2.2 4.9-4.9v-33.7c-.3-2.7-2.6-4.9-5.2-4.9zm-275 33.7H9.8v-24h11.3v24zm32.3 28.6H30.8v-80.3h22.6v80.3zm32.3 27.8H63.1V82.6h22.6v135.9zm118.9-56.4H95.5v-24h109.1v24zm32.4 56.4h-22.6V82.6H237v135.9zm32.4-27.8h-22.6v-80.3h22.6v80.3zm21.8-28.7h-12.1v-23.9h12.1V162z"/></svg>