<svg xmlns="http://www.w3.org/2000/svg" viewBox="0 0 512 512" width="25" height="25"><path d="M463.773 185.083c-20.232-50.308-63.245-81.511-115.062-83.467-14.654-.552-30.129.805-48.689 4.275-6.296 1.177-12.449 2.933-18.399 4.631-3.595 1.026-7.093 2.022-10.474 2.854 1.569-23.315 9.927-66.503 48.951-86.625L306.307 0c-30.213 15.579-51.093 43.454-60.384 80.615-3.101 12.403-4.411 23.882-4.914 32.802-3.43-.839-6.982-1.852-10.632-2.894-5.951-1.698-12.103-3.454-18.399-4.631-18.559-3.47-34.027-4.827-48.689-4.275-51.817 1.956-94.831 33.159-115.062 83.467-32.572 80.994-14.358 177.276 47.534 251.273 18.482 22.096 38.842 40.57 60.516 54.908 12.516 8.28 31.448 20.782 51.514 20.735 21.079-.062 38.46-6.874 48.209-11.746 9.749 4.872 27.13 11.684 48.21 11.746h.141c20.027-.001 38.885-12.474 51.373-20.735 21.673-14.339 42.033-32.812 60.516-54.908 61.891-73.997 80.106-170.279 47.533-251.274zm-70.621 231.963c-16.612 19.861-34.792 36.386-54.034 49.117-9.479 6.27-23.793 15.74-34.765 15.739h-.056c-22.624-.067-39.722-11.268-39.825-11.336l-8.473-5.773-8.473 5.773c-.166.113-17.171 11.269-39.824 11.336h-.056c-10.971 0-25.286-9.47-34.763-15.739-19.243-12.73-37.423-29.256-54.035-49.116-54.761-65.471-71.121-150.051-42.696-220.733 15.905-39.55 48.079-63.103 88.273-64.62 12.362-.466 25.718.736 42.022 3.784 4.918.919 10.141 2.41 15.672 3.988 8.576 2.447 17.443 4.978 26.742 5.842l.695.065h12.889l.696-.065c9.298-.864 18.166-3.395 26.741-5.842 5.531-1.578 10.755-3.069 15.672-3.988 16.304-3.049 29.664-4.249 42.022-3.784 40.194 1.518 72.369 25.07 88.273 64.62 28.425 70.682 12.065 155.261-42.697 220.732z"/></svg>