<svg xmlns="http://www.w3.org/2000/svg" viewBox="0 0 512 512" width="25" height="25"><path d="M467 120h-61c9.4-12.5 15-28.1 15-45 0-41.4-33.6-75-75-75-24.9 0-43.3 8.9-57.8 28.1-12.2 16-21 38.4-32.2 66.7-11.1-28.3-20-50.7-32.2-66.7C209.3 8.9 190.9 0 166 0c-41.4 0-75 33.6-75 75 0 16.9 5.6 32.5 15 45H45c-24.8 0-45 20.2-45 45v30c0 19.6 12.5 36.2 30 42.4V467c0 24.8 20.2 45 45 45h362c24.8 0 45-20.2 45-45V237.4c17.5-6.2 30-22.9 30-42.4v-30c0-24.8-20.2-45-45-45zm-183.5-13.3C306.5 48.4 315.2 30 346 30c24.8 0 45 20.2 45 45s-20.2 45-45 45h-67.7c1.8-4.6 3.6-9.1 5.2-13.3zM166 30c30.8 0 39.5 18.4 62.5 76.7 1.7 4.2 3.4 8.6 5.2 13.3H166c-24.8 0-45-20.2-45-45s20.2-45 45-45zm30 452H75c-8.3 0-15-6.7-15-15V240h136v242zm0-272H45c-8.3 0-15-6.7-15-15v-30c0-8.3 6.7-15 15-15h151v60zm90 272h-60V150h60v332zm166-15c0 8.3-6.7 15-15 15H316V240h136v227zm30-272c0 8.3-6.7 15-15 15H316v-60h151c8.3 0 15 6.7 15 15v30z"/></svg>