<svg xmlns="http://www.w3.org/2000/svg" viewBox="0 0 421.6 421.6" width="30" height="30"><path d="M238.5 318.5c-15.3 15.3-40.1 15.3-55.4 0-3.1-3.1-8.2-3.1-11.3 0-3.1 3.1-3.1 8.2 0 11.3 10.8 10.8 24.9 16.1 39 16.1s28.2-5.4 39-16.1c3.1-3.1 3.1-8.2 0-11.3-3.1-3.1-8.2-3.1-11.3 0z"/><path d="M391.8 397.9c-18.7-20.8-19.5-73.6-17.3-128.3 8.2-7.7 13.3-18.5 13.3-30.6 0-10.6-3.9-20.3-10.4-27.7 2.7-55.8 4.2-93.1-13.5-127.6-12.1-23.5-31.6-43.2-58.1-58.4C274.9 7.6 239.7-1.2 204 .1c-31.4 1.1-60.6 15.7-80.7 40.3-26 1.5-49.7 15.7-62.4 37.6-1.1 1.9-2.2 3.8-3.1 5.7-17.8 34.5-16.3 71.8-13.6 127.6-6.5 7.4-10.4 17.1-10.4 27.6 0 12.1 5.1 22.9 13.3 30.6 2.2 54.7 1.4 107.6-17.3 128.4-1.8 2-2.5 4.7-1.8 7.2.6 2.6 2.5 4.7 4.9 5.6 21.1 8 41.5 10.8 60 10.8 19.2 0 36.2-3.1 49.5-6.7 23.2-6.3 39.6-15.1 45.1-18.3 7.6 1.3 15.4 1.9 23.3 1.9s15.7-.7 23.3-1.9c5.6 3.3 21.9 12.1 45.1 18.3 17.8 4.8 34.3 6.7 49.2 6.7 24.9 0 45.4-5.2 60.2-10.8 2.5-.9 4.3-3 4.9-5.6.8-2.5.1-5.3-1.7-7.2zm-38-142.4v-41.2c10.4 3.4 18 13.2 18 24.7 0 11.6-7.7 21.5-18.2 24.8.1-2.8.2-5.6.2-8.3zM72 91c.9-1.7 1.8-3.4 2.7-5 10.5-18.1 30.7-29.5 52.6-29.8h.1c2.4-.1 4.7-1.2 6.2-3.1 17.3-22.5 43.1-36 71-37 32.7-1.2 64.9 6.8 93.2 23.1C321.5 52.9 339 70.3 349.6 91c14.2 27.6 14.6 57.6 12.3 109.1-2.6-1.1-5.3-1.9-8.1-2.4v-8.1c0-4.4-3.6-8-8-8s-8 3.6-8 8v18.2C227.6 209 167.9 155.9 152 139.3c-1.9-2-4.6-2.8-7.3-2.3s-4.9 2.3-5.9 4.8c-11.6 28.3-31.9 43.1-63.9 46.6-4.1.4-7.1 3.9-7.1 8v1.5c-2.8.5-5.5 1.4-8.1 2.4C57.4 148.6 57.8 118.6 72 91zm-4 172.8c-10.6-3.3-18.2-13.2-18.2-24.8 0-11.5 7.6-21.4 18-24.7v41.2c0 2.7.1 5.5.2 8.3zM48.5 399.1c14.3-24.4 16.7-64.8 14.9-120.1 2.1.7 4.3 1.1 6.6 1.5 9.1 51.2 45.6 93.1 93.7 109.9-23.2 10-67 23.2-115.2 8.7zm162.3-16.6c-70 0-127-57-127-127v-52.2c30-4.9 51.4-19.7 64.9-44.9 11.5 10.5 30.2 24.9 56.4 37.6 39.5 19 84.1 28.4 132.7 27.9v31.7c0 69.9-57 126.9-127 126.9zm73.2 17.1c-10.3-2.7-19.1-6.1-26.1-9.1 48.1-16.8 84.6-58.7 93.7-110 2.3-.3 4.4-.8 6.6-1.5-1.8 55.2.7 95.7 14.9 120.1-28.3 8.6-58.2 8.7-89.1.5z"/><path d="M115.2 231.7c-3.1 3.1-3.1 8.2 0 11.3 3.1 3.1 8.2 3.1 11.3 0 5.1-5.1 13.5-5.1 18.6 0 1.6 1.6 3.6 2.3 5.7 2.3s4.1-.8 5.7-2.3c3.1-3.1 3.1-8.2 0-11.3-11.5-11.3-30-11.3-41.3 0zm191.2 11.4c3.1-3.1 3.1-8.2 0-11.3-11.4-11.4-29.9-11.4-41.2 0-3.1 3.1-3.1 8.2 0 11.3 3.1 3.1 8.2 3.1 11.3 0 5.1-5.1 13.5-5.1 18.6 0 1.6 1.6 3.6 2.3 5.7 2.3s4-.8 5.6-2.3z"/></svg>