<svg xmlns="http://www.w3.org/2000/svg" viewBox="0 0 61.9 61.9" width="25" height="25"><path d="M50.1 0c-9.9.9-17.2 5.8-21.5 13C25.7 16.6 20 27.5 18 33.3c-3.8 7.1-7.1 15.6-9.6 23.2-1.6 4.7 5.5 7.7 7.1 3 1.9-5.7 4.2-11.9 6.9-17.6 2.6 5.8 5.3 11.6 8.1 17.4 2.2 4.4 8.8.5 6.6-3.9-2.9-5.9-5.6-11.9-8.3-17.9 0-.1.1-.2.1-.3.4.1.9.2 1.5.1 4.1-.8 8.2-1.5 12.3-2.3 1.8-.3 2.4-2.2 2.1-3.8-.8-4.6-3.4-7.8-6.7-10.8-.5-1.6-2.1-3.1-3.9-4.5 3.6-5.9 9.6-9.1 17.3-9.7C55.3 5.7 54-.3 50.1 0zM35.2 26.1c1 1.1 1.9 2.2 2.5 3.4-2 .4-4 .7-5.9 1.1 1-1.5 2.1-3 3.4-4.5z"/><circle cx="43.7" cy="15.6" r="5.3"/></svg>