<svg xmlns="http://www.w3.org/2000/svg" viewBox="0 0 297 297" width="25" height="25" fill="#00a5db"><path d="M181 173.5c-3.6-.3-9.4-.5-13.6-.2V79.1c0-1.7-.4-3.2-1.1-4.6l-16.1-32.2V10.4c0-5.7-4.7-10.4-10.4-10.4h-103c-5.7 0-10.4 4.7-10.4 10.4v31.9l-16 32.2c0 .1 0 .1-.1.2-.7 1.4-1 2.9-1 4.5v206.1c0 5.7 4.7 10.4 10.4 10.4h141.1c2.9.6 5.7 1 8.4 1.2 1.7.1 3.4.2 5.1.2 9.5 0 18.7-2.2 27.2-6.4 7.5 3.2 15.7 5 24.3 5 34.1 0 61.9-27.8 61.9-61.9 0-16.5-6.4-39.4-16.3-58.4-12.7-24.4-28.9-37.9-45.7-37.9-16.2-.1-32.1 12.7-44.7 36zM170.9 276c-13-1-32.5-8.4-47.5-17.8-15.9-10-25-21-24.4-29.3.7-8.3 11.4-17.6 28.8-25 14.2-6 31.4-9.8 44.2-10.1-5.1 14-8.1 28.4-8.1 39.7 0 16.2 6.3 31 16.5 42-3.1.7-6.3.8-9.5.5zM43.3 55.2h90.2l6.8 13.5H36.5l6.8-13.5zm4-34.4h82.2v13.5H47.3V20.8zM30.1 89.5h116.6v86.8c-9.1 2-18.4 4.9-27 8.5-25.4 10.7-40.1 25.8-41.4 42.5-1.3 16.3 10.2 33.1 32.4 47.5H30.1V89.5zm195.7 185.3c-22.7 0-41.1-18.4-41.1-41.1 0-13 5.7-33.1 13.9-48.8 8.7-16.7 18.9-26.7 27.2-26.7s18.5 10 27.2 26.7c8.2 15.7 13.9 35.8 13.9 48.8 0 22.6-18.4 41.1-41.1 41.1z"/></svg>