<svg xmlns="http://www.w3.org/2000/svg" viewBox="0 0 579.4 579.4" width="25" height="25"><path fill="#c1c1c1" d="M434.5 238.2v-93.3C434.5 65 369.6 0 289.7 0S144.9 65 144.9 144.8v93.3h72.4v-93.3c0-40 32.5-72.4 72.4-72.4 39.9 0 72.4 32.5 72.4 72.4v93.3h72.4zM72.4 325.9V507c0 40 32.4 72.4 72.4 72.4h289.7c40 0 72.4-32.4 72.4-72.4V325.9c0-40-32.4-72.4-72.4-72.4H144.8c-40 0-72.4 32.4-72.4 72.4zm217.3 36.2c20 0 36.2 16.2 36.2 36.2 0 13.3-7.5 24.4-18.1 30.7v59.9c0 10-8.1 18.1-18.1 18.1-10 0-18.1-8.1-18.1-18.1V429c-10.6-6.3-18.1-17.4-18.1-30.7 0-20 16.2-36.2 36.2-36.2z"/></svg>