<svg xmlns="http://www.w3.org/2000/svg" viewBox="0 0 512 467.2"><path d="M356.5 221.3l-54.8-38.6c-9.9-7-23.6.1-23.6 12.3v23.6H15c-8.3 0-15 6.7-15 15s6.7 15 15 15h263v23.6c0 12.2 13.8 19.2 23.6 12.3l54.8-38.6c8.5-6 8.5-18.6.1-24.6z"/><path d="M278.4 0C192.3 0 116.6 46.8 76.1 116.8c-4.1 7.2-1.7 16.3 5.5 20.5 7.2 4.1 16.3 1.7 20.5-5.5C137.3 70.9 203.1 30 278.4 30 390.7 30 482 121.3 482 233.6s-91.3 203.6-203.6 203.6c-75.3 0-141.2-40.9-176.4-101.8-4.1-7.2-13.3-9.6-20.5-5.5-7.2 4.1-9.6 13.3-5.5 20.5 40.5 70 116.2 116.8 202.3 116.8 129.1 0 233.6-104.5 233.6-233.6C512 104.5 407.5 0 278.4 0z"/></svg>