<svg xmlns="http://www.w3.org/2000/svg" viewBox="0 0 512 512" width="25" height="25"><path d="M459.3 52.7C427.2 20.6 380 .4 336.1 0c-43.5-.8-83.5 17.9-118.4 52.7-32.8 32.8-64 90.3-79.4 146.5-11.6 42.5-13.3 79.7-5.5 109.4L85.3 356c-7-2.7-14.1-4-21.3-4-35.3 0-64 28.7-64 64 0 25.5 14.9 48 37.8 58.2C48 497.1 70.5 512 96 512c35.3 0 64-28.7 64-64 0-7.2-1.4-14.4-4-21.3l47.7-48c12.1 3.2 25 5.3 39.5 5.3 21.1 0 44.5-3.4 69.7-10.3 56.2-15.4 113.6-46.5 146.5-79.4 34.8-34.8 53-75.8 52.7-118.4-.5-43.9-20.7-91.1-52.8-123.2zM125.2 412.1c-5.2 5.2-6.2 13.4-2.3 19.7 3.4 5.5 5.1 10.8 5.1 16.2 0 17.6-14.4 32-32 32-14.1 0-26.3-9.2-30.4-22.9C64 452 60 448 54.9 446.4 41.2 442.3 32 430.1 32 416c0-23 24.3-41.6 48.2-26.9 6.3 3.9 14.5 3 19.7-2.3l46.7-46.7c3.3 5.1 7.1 9.8 11.3 14.1 4.2 4.2 9.1 7.8 14.2 11.2 0-.2-46.9 46.7-46.9 46.7zm311.5-140.5c-28.7 28.7-81.9 57.3-132.3 71.1-56.1 15.4-101.2 11.3-123.8-11.3-22.6-22.6-26.7-67.7-11.3-123.8 13.8-50.4 42.4-103.6 71.1-132.3C269.1 46.6 300.9 32 334.8 32h1c35.8.3 74.4 16.9 100.8 43.3 26.4 26.4 43 65 43.3 100.8.4 34.4-14.2 66.5-43.2 95.5z"/></svg>