<svg xmlns="http://www.w3.org/2000/svg" viewBox="0 0 512 512" width="25" height="25"><path d="M373.4 164L331 100.5V90c8.3 0 15-6.7 15-15V15c0-8.3-6.7-15-15-15H181c-8.3 0-15 6.7-15 15v60c0 8.3 6.7 15 15 15v10.5L138.6 164c-11.5 17.3-17.6 37.4-17.6 58.2V467c0 24.8 20.2 45 45 45h180c24.8 0 45-20.2 45-45V222.3c0-20.8-6.1-41-17.6-58.3zM196 30h120v30H196V30zm165 437c0 8.3-6.7 15-15 15H166c-8.3 0-15-6.7-15-15V249.5c9.3-3.9 26.1-9.5 45-9.5 28.6 0 52.5 13 52.7 13.1 1.2.7 30.7 16.9 67.3 16.9 17.4 0 33.1-3.6 45-7.5V467zm0-236.5c-9.3 3.9-26.1 9.5-45 9.5-28.6 0-52.5-13-52.7-13.1-1.2-.7-30.7-16.9-67.3-16.9-17.3 0-33 3.6-44.8 7.5.8-13.2 5.1-25.8 12.4-36.8l44.9-67.3c1.6-2.5 2.5-5.4 2.5-8.3V90h90v15c0 3 .9 5.9 2.5 8.3l44.9 67.3c8.2 12.4 12.6 26.7 12.6 41.6v8.3z"/></svg>