<svg xmlns="http://www.w3.org/2000/svg" viewBox="0 0 511 511" width="25" height="25"><path d="M334.1 5.1c-5.6 5.2-7.5 13.3-4.9 20.5 9.4 25.6 14.1 52.6 14.1 80.4 0 63.1-24.6 122.5-69.2 167.2-44.7 44.7-104.1 69.3-167.2 69.3-27.7 0-54.7-4.7-80.3-14.1-7.2-2.6-15.2-.7-20.5 4.9S-.5 347 2.7 354c20.5 45.5 53.2 84.2 94.8 112.1 42.6 28.5 92.3 44.1 143.7 44.9 36.6.6 72.2-6.2 105.9-20.2 32.4-13.5 61.5-33 86.5-57.9 25-25 44.5-54.1 58-86.4C505.2 314 512 279.8 512 244.6v-4c-.8-51.5-16.3-101.3-44.8-144-28-41.6-66.8-74.4-112.3-94.9-7-3.2-15.2-1.8-20.8 3.4zm108.1 108.2c25.4 37.9 39.1 82 39.8 127.7.4 32.5-5.6 64-18 93.8-12 28.8-29.3 54.6-51.5 76.8-22.2 22.2-48.1 39.5-76.9 51.5-29.8 12.4-61.4 18.4-93.9 17.9-45.7-.7-89.8-14.5-127.5-39.8-29.8-20-54.5-46.2-72.5-76.9 21.2 5.4 43 8.1 65.2 8.1 71.2 0 138.1-27.7 188.4-78.1 50.3-50.3 78-117.2 78-188.4 0-22.2-2.7-44.1-8.1-65.3 30.7 18.1 57 42.8 77 72.7z"/></svg>