<svg xmlns="http://www.w3.org/2000/svg" viewBox="0 0 26 26" width="25" height="25"><path d="M13 1C6.4 1 1 6.4 1 13s5.4 12 12 12 12-5.4 12-12S19.6 1 13 1zm0 22.5C7.2 23.5 2.5 18.8 2.5 13S7.2 2.5 13 2.5 23.5 7.2 23.5 13 18.8 23.5 13 23.5z"/><path d="M13.3 5.9h-3c-.4 0-.8.3-.8.8v5.6h-.9c-.4 0-.8.3-.8.8s.3.8.8.8h.9v1h-.9c-.4 0-.8.3-.8.8s.3.8.8.8h.9v3.1c0 .4.3.8.8.8s.8-.3.8-.8v-3.1H14c.4 0 .8-.3.8-.8s-.3-.8-.8-.8h-3v-1h2.3c2.7 0 4.9-1.8 4.9-3.9S16 5.9 13.3 5.9zm0 6.4H11V7.4h2.3c1.9 0 3.4 1.1 3.4 2.4s-1.5 2.5-3.4 2.5z"/></svg>