<svg xmlns="http://www.w3.org/2000/svg" viewBox="0 0 96 96" width="25" height="25"><circle cx="64.2" cy="13" r="8"/><path d="M83.6 24c-2-1-4.4-.3-5.4 1.7l-3.5 6.6-15.4-9.7c-.6-.4-1.3-.6-2.1-.6h-17c-1.5 0-2.8.8-3.5 2.1l-6.5 12c-1.1 1.9-.3 4.4 1.6 5.4.6.3 1.3.5 1.9.5 1.4 0 2.8-.8 3.5-2.1l5.4-9.9h5.9L30.8 63H14.2c-2.2 0-4 1.8-4 4s1.8 4 4 4h19c1.5 0 2.8-.8 3.5-2.1l7-12.9 11.5 10.7-.9 20.1c-.2 2.2 1.5 4.1 3.7 4.2h.2c2.1 0 3.9-1.7 4-3.8l1-22c.1-1.2-.4-2.3-1.3-3.1l-9.7-9 10.2-19L74 41.4c.9.6 2.1.8 3.2.5 1.1-.3 2-1 2.5-2l5.5-10.5c1.1-1.9.4-4.3-1.6-5.4z"/></svg>