<svg xmlns="http://www.w3.org/2000/svg" viewBox="0 0 453.1 453.1" width="25" height="25"><circle cx="314.7" cy="129.2" r="40.9"/><path d="M88.6 192.1c-7.9 7.5-8.1 20-.6 27.9 7.4 7.7 19.9 8.2 27.9.6l49.3-47.2 73.2 16.4L173 192c-50.4 48.3-43.3 41.5-44.3 42.5 10.5 3.5 20.1 9.4 28.2 17.4l.2.2c2.4 2.4 5.6 3.7 9 3.7s6.6-1.3 9-3.7c8.1-8.1 17.9-14.1 28.5-17.6 7.3-2.4 15-3.7 22.9-3.7 12.2 0 23.9 3 34.3 8.5l23.1-18.6 59.9 9.6c4.6.7 9.5-.2 13.6-2.8l78.4-49.4c9.2-5.8 12-18 6.2-27.2s-18-12-27.2-6.2l-72.1 45.4-54.3-8.7c-4.9-5.8-9.9-11.5-14.8-17.3-1.6-1.8-3.5-4.1-6.7-6.2-2.5-1.6-4.5-2.3-10.7-4.1-4.5-1.3-8.6-2.5-12.1-3.5l-79.5-18.9c-6.3-1.4-13.1.4-18 5-7 6.8-51 48.9-58 55.7z"/><path d="M86.1 283.9c5.2-5.2 12.2-8.1 19.6-8.1s14.4 2.9 19.6 8.1c10.9 10.9 25.4 16.9 40.8 16.9s29.9-6 40.8-16.9c5.2-5.2 12.2-8.1 19.6-8.1s14.4 2.9 19.6 8.1c22.5 22.5 59.1 22.5 81.7 0 5.2-5.2 12.2-8.1 19.6-8.1s14.4 2.9 19.6 8.1c22.5 22.5 59.1 22.5 81.7 0 5.9-5.9 5.9-15.4 0-21.2-5.9-5.9-15.4-5.9-21.2 0-5.2 5.2-12.2 8.1-19.6 8.1s-14.4-2.9-19.6-8.1c-10.9-10.9-25.4-16.9-40.8-16.9s-29.9 6-40.8 16.9c-5.2 5.2-12.2 8.1-19.6 8.1s-14.4-2.9-19.6-8.1c-22.5-22.5-59.1-22.5-81.7 0-5.2 5.2-12.2 8.1-19.6 8.1-7.4 0-14.4-2.9-19.6-8.1-22.5-22.5-59.1-22.5-81.7 0-5.2 5.2-12.2 8.1-19.6 8.1s-14.4-2.9-19.6-8.1c-5.9-5.9-15.4-5.9-21.2 0-5.9 5.9-5.9 15.4 0 21.2 22.4 22.5 59 22.5 81.6 0z"/><path d="M427.5 326.7c-5.2 5.2-12.2 8.1-19.6 8.1s-14.4-2.9-19.6-8.1c-10.9-10.9-25.4-16.9-40.8-16.9s-29.9 6-40.8 16.9c-5.2 5.2-12.2 8.1-19.6 8.1s-14.4-2.9-19.6-8.1c-22.5-22.5-59.1-22.5-81.7 0-5.2 5.2-12.2 8.1-19.6 8.1-7.4 0-14.4-2.9-19.6-8.1-22.5-22.5-59.1-22.5-81.7 0-5.2 5.2-12.2 8.1-19.6 8.1s-14.4-2.9-19.6-8.1c-5.9-5.9-15.4-5.9-21.2 0-5.9 5.9-5.9 15.4 0 21.2 22.5 22.5 59.1 22.5 81.7 0 5.2-5.2 12.2-8.1 19.6-8.1s14.4 2.9 19.6 8.1c10.9 10.9 25.4 16.9 40.8 16.9s29.9-6 40.8-16.9c5.2-5.2 12.2-8.1 19.6-8.1s14.4 2.9 19.6 8.1c22.5 22.5 59.1 22.5 81.7 0 5.2-5.2 12.2-8.1 19.6-8.1s14.4 2.9 19.6 8.1c22.5 22.5 59.1 22.5 81.7 0 5.9-5.9 5.9-15.4 0-21.2-5.9-5.9-15.4-5.9-21.3 0z"/></svg>