<svg xmlns="http://www.w3.org/2000/svg" viewBox="0 0 55 55" fill="#dedee0"><path d="M55 27.5C55 12.3 42.7 0 27.5 0S0 12.3 0 27.5c0 8 3.4 15.2 8.9 20.3l.9.8c.1 0 .1.1.2.1.5.4 1 .8 1.5 1.1.2.1.3.2.5.3.5.4 1.1.7 1.6 1 .1.1.2.1.4.2.6.3 1.2.7 1.9 1 0 0 .1 0 .1.1 2.1 1 4.3 1.7 6.7 2.1h.2c.7.1 1.5.2 2.2.3h.3c.6.2 1.3.2 2.1.2.7 0 1.5 0 2.2-.1h.3c.7-.1 1.5-.2 2.2-.3h.2c2.3-.4 4.5-1.1 6.6-2.1.1 0 .2-.1.2-.1l1.8-.9c.1-.1.3-.2.4-.3.5-.3 1.1-.6 1.6-1 .2-.1.4-.3.5-.4.4-.3.9-.6 1.3-1 .1-.1.2-.1.3-.2l.9-.8c5.5-5 9-12.3 9-20.3zm-53 0C2 13.4 13.4 2 27.5 2S53 13.4 53 27.5c0 7.6-3.3 14.4-8.6 19.1-.3-.2-.6-.4-.9-.5L35 41.9c-.8-.4-1.2-1.1-1.2-2v-3c.2-.2.4-.5.6-.8 1.1-1.5 2-3.3 2.6-5.1 1.3-.6 2.1-1.9 2.1-3.3v-3.5c0-.9-.3-1.7-.9-2.4V17c.1-.5.2-3.4-1.9-5.9-1.8-2-4.8-3.1-8.8-3.1s-7 1.1-8.9 3.2c-2.1 2.4-1.9 5.3-1.9 5.9v4.7c-.6.7-.9 1.5-.9 2.4v3.5c0 1.1.5 2.1 1.3 2.8.8 3.2 2.5 5.6 3.1 6.4v2.9c0 .8-.4 1.6-1.2 2L11.2 46c-.3.1-.5.3-.8.5C5.3 41.8 2 35 2 27.5z"/></svg>