<svg xmlns="http://www.w3.org/2000/svg" viewBox="0 0 512 512" width="30" height="30"><path d="M436.5 208.5c-11.9-38.9-11.9-80.6-4.7-120.4 4.8-26.3 12.3-53.2 24.2-77.2 4.3-8.6-9.1-15.4-13.4-6.7-11.9 23.6-19.4 50.1-24.6 75.9-6.9 34.3-8.4 69.9-2.6 104.5 2.8 16.2 7.3 32 13.2 47.3-40 13.2-82.8 19.3-124.7 22.3-52.8 3.8-106.3 1.4-158.5-7.7-21-3.6-42-8.2-62.2-14.9 25.4-65.8 19.7-139-4.3-204.4C76 19.4 73 11.6 69.2 4.1 65.1-4.5 51.7 2.3 56 10.9 68.7 36.3 76.4 65.1 81.1 93c7.3 43.7 5 88.4-10.5 130.1-8 21.5-19 41.5-30.3 61.3-29.3 51.6-57 100.2-27.9 220 2.3 9.4 16.9 5.9 14.6-3.5-20.8-85.4-11.9-131.5 6-170.6 6.1.6 27.5 3.3 56.5 15 31.7 12.8 79.2 39.4 125.5 93.2 7.8 9 19.5 14.6 33.6 16.1v50.1c0 9.7 15 9.7 15 0v-50.2c12.8-1.6 24.6-7 33.2-15.6 57.4-57.4 104.8-84 134.5-96.1 24.7-10.1 41.4-12.2 47.9-12.6 17.9 39.2 26.8 85.3 6 170.7-2.3 9.4 12.3 12.9 14.6 3.5 29.1-119.8 1.4-168.4-27.9-219.9-12.9-22.4-26.1-45.6-35.4-76zM286.1 428.2c-7.4 7.4-18.4 11.7-30.1 11.7-12.7 0-23.5-4.1-29.7-11.3-48.6-56.4-98.6-84.2-132-97.6-24.6-9.9-44-13.7-54.3-15.1 12.3-23.6 26.7-46 37.6-70.4 40.1 13.8 83.4 20 125.5 23.3 55.2 4.3 111.1 2.1 165.7-7.3 22.1-3.8 44.4-8.5 65.7-15.7 10.8 24.2 25.1 46.5 37.4 69.9-25.3 3.2-93.8 20.5-185.8 112.5z"/><path d="M473.5 219c5.6 7.8 17.8-.9 12.2-8.8-29.5-40.9-16-97.7-15.8-98.3 2.3-9.4-12.2-13-14.6-3.6-.7 2.6-15.5 64.1 18.2 110.7zm-446.9 1.7c3.3 2.4 8.1 1.6 10.5-1.7 33.7-46.7 18.8-108.1 18.2-110.7-2.3-9.4-16.9-5.8-14.6 3.6.1.6 13.8 57.3-15.8 98.3-2.4 3.4-1.7 8.1 1.7 10.5zM3.1 184.5c3.3 2.4 8.1 1.6 10.5-1.7 15.4-21.3 8.7-49.2 8.4-50.4-2.3-9.4-16.8-5.8-14.6 3.6.1.2 5.3 22.4-6 38-2.4 3.4-1.6 8.1 1.7 10.5zm501.4 1.5c6 0 9.6-7 6.1-11.9-11.2-15.5-6.1-37.6-6-38 2.3-9.4-12.2-13-14.6-3.6-.3 1.2-7 29 8.4 50.4 1.5 2 3.8 3.1 6.1 3.1zm-251 33.7c4.1 0 7.5-3.4 7.5-7.5v-25.6c0-9.7-15-9.7-15 0v25.6c0 4.2 3.4 7.5 7.5 7.5z"/></svg>