<svg xmlns="http://www.w3.org/2000/svg" viewBox="0 0 96 96" width="25" height="25"><circle cx="53" cy="13" r="8"/><path d="M73.3 44.2L63 40.8s-5.7-13.2-5.9-13.6c-1.4-2.5-4-4.2-7-4.2-1.2 0-2.4.3-3.4.8l-14 5.5c-1 .4-1.8 1.2-2.2 2.2l-5 12c-.8 2 .1 4.4 2.2 5.2.5.2 1 .3 1.5.3 1.6 0 3.1-.9 3.7-2.5L37 36.1l4.2-1.6-6.9 33.7-13.4 16.3c-1.4 1.7-1.2 4.2.5 5.6.7.6 1.6.9 2.5.9 1.2 0 2.3-.5 3.1-1.5l14-17c.4-.5.7-1.1.8-1.7l2.4-11.6L55 67v20c0 2.2 1.8 4 4 4s4-1.8 4-4V65c0-1.3-.6-2.5-1.6-3.2l-9.7-7.1 2.7-13.5 1.9 4.4c.5 1 1.3 1.8 2.4 2.2l12 4c.4.1.8.2 1.3.2 1.7 0 3.2-1.1 3.8-2.7.7-2.1-.4-4.4-2.5-5.1z"/></svg>