<svg xmlns="http://www.w3.org/2000/svg" width="25" height="25"><path d="M12.3 4.2s-.1 0 0 0C12 4.5 7 11.8 7 14.7c0 3 2.5 5.5 5.5 5.5s5.5-2.5 5.5-5.5c0-2.9-5-10.2-5.2-10.5-.1-.1-.4-.1-.5 0zm.2 15.4c-2.7 0-4.8-2.2-4.8-4.8 0-2.4 3.8-8.2 4.8-9.7 1 1.6 4.8 7.4 4.8 9.7 0 2.6-2.1 4.8-4.8 4.8z"/><path d="M12.1 18.7c2.6 0 4.7-2.1 4.7-4.7h-.7c0 2.2-1.8 4-4 4v.7z"/><path d="M12.5 0C5.6 0 0 5.6 0 12.5S5.6 25 12.5 25 25 19.4 25 12.5 19.4 0 12.5 0zm0 24.2C6.1 24.2.8 19 .8 12.5S6.1.8 12.5.8 24.2 6 24.2 12.5c0 6.4-5.3 11.7-11.7 11.7z"/></svg>