<svg xmlns="http://www.w3.org/2000/svg" viewBox="0 0 463 463" width="30" height="30"><g transform="translate(0 -540.36)"><circle cx="339" cy="962.3" r="7.5"/><path d="M340.4 592.9c-2.9-.8-72.3-20.2-109-20.2-37.9 0-107.4 19.4-110.3 20.2-3.9 1.1-6.2 5.1-5.2 9l19.9 79.6c.8 3.4 3.9 5.7 7.3 5.7.4 0 .8 0 1.3-.1.6-.1 58.2-9.8 87.1-9.8 27.7 0 86.5 9.8 87.1 9.9 3.9.7 7.6-1.8 8.5-5.7l18.7-79.6c.8-3.9-1.5-7.9-5.4-9zM314 671.3c-15.1-2.4-51.1-7.7-75.1-8.8v-40h-15v40c-24.7 1-60.4 6.4-75.3 8.8l-16.5-65.8c18.7-4.9 70.1-17.7 99.2-17.7 28.2 0 79.5 12.9 98.1 17.8L314 671.3z"/><path d="M377 540.4H84.6c-23.1 0-44.5 8.7-60.2 24.4C8.6 580.6 0 601.9 0 625v292.4c0 48.2 37.2 85.9 84.7 85.9h292.4c23.1 0 44.7-8.9 60.8-25.1 16.2-16.2 25.1-37.8 25.1-60.8V625c-.1-47.4-37.8-84.6-86-84.6zm70.9 377.1c0 39.1-31.8 70.9-70.9 70.9H84.6c-39.1 0-69.7-31.1-69.7-70.9V720.9h433v196.6zm0-211.5h-433v-80.9c0-39.8 29.9-69.7 69.7-69.7H377c39.8 0 70.9 30.6 70.9 69.7V706z"/><path d="M372 969.8c31.6 0 57.3-25.7 57.3-57.3 0-4.1-3.4-7.5-7.5-7.5s-7.5 3.4-7.5 7.5c0 23.3-19 42.3-42.3 42.3-4.1 0-7.5 3.4-7.5 7.5s3.4 7.5 7.5 7.5zm-298.6-397c-22.7 0-41.1 18.4-41.1 41.1 0 4.1 3.4 7.5 7.5 7.5s7.5-3.4 7.5-7.5c0-14.6 11.5-26.1 26.1-26.1 4.1 0 7.5-3.4 7.5-7.5s-3.4-7.5-7.5-7.5z"/></g></svg>