<svg xmlns="http://www.w3.org/2000/svg" viewBox="0 0 63.8 63.8" width="25" height="25"><circle cx="31.7" cy="9.1" r="9.1"/><path d="M58.5 49c-4.4-10.3-19.9-26.2-20.2-26.4-1.6-1.7-3.8-2.5-6.2-2.5h-.4c-2.3 0-4.6.9-6.2 2.5-.3.2-15.8 16.1-20.2 26.4-1.1 2.5-.1 4.9 1.6 6.3-.4 1.4-.4 2.9 0 4.4.8 2.6 2.9 4.2 5.4 4.2h39c2.5 0 4.6-1.6 5.4-4.2.5-1.5.5-3 0-4.4 1.9-1.5 2.9-3.8 1.8-6.3zm-41.3-1.7c1.9-3 4-5.8 6.3-8.5 0 2.8.1 9.7.2 10.3-.4-.1-4.8-1.2-6.5-1.8zm22.9 1.8c.1-.6.2-7.5.2-10.3 2.3 2.7 4.4 5.5 6.3 8.5-1.7.6-6.1 1.7-6.5 1.8z"/></svg>