<svg xmlns="http://www.w3.org/2000/svg" xmlns:xlink="http://www.w3.org/1999/xlink" viewBox="0 0 130 40"><defs><path id="a" d="M0 .62h43.62v39.06H0z"/></defs><clipPath id="b"><use xlink:href="#a" overflow="visible"/></clipPath><g clip-path="url(#b)"><defs><path id="c" d="M-223-37h1781v6960H-223z"/></defs><clipPath id="d"><use xlink:href="#c" overflow="visible"/></clipPath><g clip-path="url(#d)"><defs><path id="e" d="M-1 0h45v40H-1z"/></defs><clipPath id="f"><use xlink:href="#e" overflow="visible"/></clipPath><g clip-path="url(#f)"><defs><path id="g" d="M6.62 36.4c.85-.4 1.62-.76 2.4-1.12.5-.24 1-.48 1.51-.71.34-.15.71-.16 1.05 0 1.9.89 3.8 1.78 5.7 2.68.68.32.96 1.05.68 1.69-.29.65-1 .92-1.71.6-1.59-.71-3.17-1.44-4.74-2.18-.34-.16-.6-.18-.94-.02-1.55.74-3.1 1.48-4.67 2.18-.98.44-1.87-.17-1.88-1.25-.01-2.11-.01-4.23 0-6.34 0-.34-.09-.6-.29-.87a17.872 17.872 0 01-3.06-6.08C0 22.6-.18 20.17.18 17.71c.71-4.81 3.06-8.68 6.73-11.8 2.27-1.93 4.85-3.3 7.68-4.19C17.9.68 21.28.38 24.72.8c4.72.57 8.91 2.37 12.48 5.53 2.85 2.53 4.85 5.63 5.84 9.32.64 2.42.74 4.87.37 7.35a18.39 18.39 0 01-3.7 8.66c-2.06 2.66-4.6 4.71-7.76 5.93-2.07.8-4.21 1.18-6.43.86-1.34-.2-2.6-.62-3.68-1.48-.59-.48-1.02-1.1-1.35-1.78-.56-1.15-.84-2.39-1.17-3.62-.35-1.26-1.01-2.38-2.09-3.15-1.11-.79-1.91-1.76-2.29-3.07-.33-1.15-.24-2.28.09-3.41.53-1.84 1.03-3.68 1.55-5.53.54-1.93 1.09-3.85 1.63-5.78.06-.22.11-.44.18-.66.19-.63.88-1.04 1.48-.88.73.19 1.11.82.92 1.54l-1.83 7.11c-.27 1.05-.54 2.11-.8 3.16-.18.73.2 1.38.91 1.57.62.16 1.3-.24 1.46-.92.23-1 .42-2 .61-3 .37-1.92.73-3.85 1.1-5.77.11-.59.21-1.18.32-1.77.13-.69.7-1.1 1.4-1.03.63.07 1.15.67 1.08 1.33-.06.58-.18 1.16-.28 1.74-.2 1.19-.41 2.38-.62 3.57-.29 1.65-.6 3.3-.87 4.95-.05.33-.07.71.03 1.02.18.56.74.83 1.34.75.55-.08.98-.52 1.04-1.1.24-2.43.46-4.85.7-7.28.09-.98.19-1.95.31-2.92.09-.76.7-1.24 1.43-1.14.68.09 1.13.76 1.07 1.48-.13 1.5-.23 2.99-.35 4.49l-.48 6.22c-.04.59-.03 1.18-.13 1.76-.11.65-.26 1.31-.5 1.92-.42 1.04-1.28 1.65-2.3 2.03-.51.19-1.03.34-1.53.57-1.43.66-1.85 1.95-1.52 3.38.42 1.77 1.92 3 3.73 3.24 1.82.24 3.53-.15 5.18-.85 3.17-1.34 5.59-3.55 7.4-6.46 1.71-2.75 2.49-5.76 2.38-8.98-.12-3.84-1.56-7.17-4.11-10.02-2.17-2.43-4.82-4.15-7.87-5.26-3.04-1.1-6.16-1.46-9.38-1.16-2.77.26-5.38 1.02-7.83 2.33-3.61 1.93-6.39 4.69-8.06 8.47-1.06 2.4-1.48 4.94-1.21 7.57.31 3.09 1.47 5.85 3.42 8.26.38.47.54.95.54 1.55-.02 1.52.01 3.05.02 4.57-.01.11.01.22.03.39"/></defs><clipPath id="h"><use xlink:href="#g" overflow="visible"/></clipPath><g clip-path="url(#h)"><defs><path id="i" d="M0 0h44v40H0z"/></defs><clipPath id="j"><use xlink:href="#i" overflow="visible"/></clipPath><path clip-path="url(#j)" fill="#FFF" d="M-5-4.38h53.62v49.06H-5z"/></g></g></g></g><defs><path id="k" d="M63.69 11.5c0 3.62-2.88 6.5-6.54 6.5s-6.52-2.86-6.52-6.5S53.49 5 57.15 5s6.54 2.87 6.54 6.5m-11.51-.02c0 2.95 2.14 5.15 5 5.15 2.84 0 4.98-2.21 4.98-5.15 0-2.92-2.14-5.11-4.98-5.11-2.87 0-5 2.17-5 5.11"/></defs><clipPath id="l"><use xlink:href="#k" overflow="visible"/></clipPath><g clip-path="url(#l)"><defs><path id="m" d="M-223-37h1781v6960H-223z"/></defs><clipPath id="n"><use xlink:href="#m" overflow="visible"/></clipPath><path clip-path="url(#n)" fill="#FFF" d="M45.63-.01h23.06v23H45.63z"/></g><defs><path id="o" d="M76.37 5.78v11.5c0 .38-.31.72-.72.72-.23 0-.46-.13-.65-.38l-7.17-9.61v9.21c0 .44-.32.78-.74.78-.44 0-.74-.34-.74-.78V5.72c0-.38.32-.72.74-.72.25 0 .44.13.71.5l7.11 9.49-.02-9.21c0-.44.32-.78.74-.78.44-.01.74.34.74.78"/></defs><clipPath id="p"><use xlink:href="#o" overflow="visible"/></clipPath><g clip-path="url(#p)"><defs><path id="q" d="M-223-37h1781v6960H-223z"/></defs><clipPath id="r"><use xlink:href="#q" overflow="visible"/></clipPath><path clip-path="url(#r)" fill="#FFF" d="M61.35-.01h20.03v23H61.35z"/></g><defs><path id="s" d="M79.85 17.01V5.78c0-.44.3-.78.74-.78.42 0 .74.34.74.78v10.68h5.36c.4 0 .69.29.69.67 0 .36-.29.67-.69.67h-6.06a.777.777 0 01-.78-.79"/></defs><clipPath id="t"><use xlink:href="#s" overflow="visible"/></clipPath><g clip-path="url(#t)"><defs><path id="u" d="M-223-37h1781v6960H-223z"/></defs><clipPath id="v"><use xlink:href="#u" overflow="visible"/></clipPath><path clip-path="url(#v)" fill="#FFF" d="M74.85-.01h17.53v22.79H74.85z"/></g><defs><path id="w" d="M89.5 17.22V5.78c0-.44.3-.78.74-.78.42 0 .74.34.74.78v11.44c0 .44-.32.78-.74.78-.44 0-.74-.35-.74-.78"/></defs><clipPath id="x"><use xlink:href="#w" overflow="visible"/></clipPath><g clip-path="url(#x)"><defs><path id="y" d="M-223-37h1781v6960H-223z"/></defs><clipPath id="z"><use xlink:href="#y" overflow="visible"/></clipPath><path clip-path="url(#z)" fill="#FFF" d="M84.5-.01h11.49v23H84.5z"/></g><defs><path id="A" d="M104.46 5.78v11.5c0 .38-.31.72-.72.72-.23 0-.46-.13-.65-.38l-7.17-9.61v9.21c0 .44-.32.78-.74.78-.44 0-.74-.34-.74-.78V5.72c0-.38.32-.72.74-.72.25 0 .44.13.71.5l7.11 9.49-.02-9.21c0-.44.32-.78.74-.78.44-.01.74.34.74.78"/></defs><clipPath id="B"><use xlink:href="#A" overflow="visible"/></clipPath><g clip-path="url(#B)"><defs><path id="C" d="M-223-37h1781v6960H-223z"/></defs><clipPath id="D"><use xlink:href="#C" overflow="visible"/></clipPath><path clip-path="url(#D)" fill="#FFF" d="M89.44-.01h20.03v23H89.44z"/></g><defs><path id="E" d="M107.94 17.1V5.89c0-.38.29-.69.69-.69h6.77c.38 0 .69.3.69.67 0 .38-.31.67-.69.67h-5.97v3.85h4.44c.38 0 .69.29.69.67 0 .36-.31.67-.69.67h-4.44v4.73h6.2c.38 0 .69.29.69.67 0 .36-.31.67-.69.67h-7a.687.687 0 01-.69-.7"/></defs><clipPath id="F"><use xlink:href="#E" overflow="visible"/></clipPath><g clip-path="url(#F)"><defs><path id="G" d="M-223-37h1781v6960H-223z"/></defs><clipPath id="H"><use xlink:href="#G" overflow="visible"/></clipPath><path clip-path="url(#H)" fill="#FFF" d="M102.94.2h18.37v22.58h-18.37z"/></g><defs><path id="I" d="M53.72 23.09V33.5c0 .74-.55 1.32-1.28 1.32-.74 0-1.3-.57-1.3-1.32V23.09c0-.74.53-1.32 1.3-1.32.73 0 1.28.57 1.28 1.32m7.87 10.5c0 .65-.55 1.22-1.2 1.22-.38 0-.74-.19-1.03-.53l-4.79-5.51c-.21-.25-.34-.55-.34-.86 0-.29.13-.57.36-.82l4.54-4.9c.29-.29.55-.42.93-.42.63 0 1.16.53 1.16 1.2 0 .3-.11.57-.38.86l-3.79 4.1 4.21 4.88c.24.27.33.52.33.78"/></defs><clipPath id="J"><use xlink:href="#I" overflow="visible"/></clipPath><g clip-path="url(#J)"><defs><path id="K" d="M-223-37h1781v6960H-223z"/></defs><clipPath id="L"><use xlink:href="#K" overflow="visible"/></clipPath><path clip-path="url(#L)" fill="#FFF" d="M46.15 16.77H66.6v23.04H46.15z"/></g><defs><path id="M" d="M63.92 33.5V23.09c0-.74.53-1.32 1.3-1.32.74 0 1.28.57 1.28 1.32V33.5c0 .74-.53 1.32-1.28 1.32-.76-.01-1.3-.58-1.3-1.32"/></defs><clipPath id="N"><use xlink:href="#M" overflow="visible"/></clipPath><g clip-path="url(#N)"><defs><path id="O" d="M-223-37h1781v6960H-223z"/></defs><clipPath id="P"><use xlink:href="#O" overflow="visible"/></clipPath><path clip-path="url(#P)" fill="#FFF" d="M58.92 16.77h12.57v23.04H58.92z"/></g><defs><path id="Q" d="M72.22 33.5v-9.17h-2.99c-.67 0-1.18-.52-1.18-1.16 0-.67.52-1.16 1.18-1.16h8.56c.69 0 1.18.5 1.18 1.16 0 .65-.52 1.16-1.18 1.16H74.8v9.17c0 .74-.55 1.32-1.3 1.32-.73-.01-1.28-.58-1.28-1.32"/></defs><clipPath id="R"><use xlink:href="#Q" overflow="visible"/></clipPath><g clip-path="url(#R)"><defs><path id="S" d="M-223-37h1781v6960H-223z"/></defs><clipPath id="T"><use xlink:href="#S" overflow="visible"/></clipPath><path clip-path="url(#T)" fill="#FFF" d="M63.04 17h20.93v22.81H63.04z"/></g><defs><path id="U" d="M79.81 28.29c0-3.66 2.94-6.52 6.71-6.52 1.93 0 3.74.82 4.86 2.17.27.3.4.61.4.95 0 .63-.53 1.16-1.2 1.16-.36 0-.71-.17-.99-.5-.82-.95-1.85-1.41-3.07-1.41-2.36 0-4.06 1.74-4.06 4.16 0 2.4 1.7 4.12 4.06 4.12 1.2 0 2.21-.46 3.05-1.41.3-.32.63-.5 1.01-.5.67 0 1.18.53 1.18 1.16 0 .31-.11.61-.4.95-1.11 1.35-2.92 2.17-4.86 2.17-3.77.02-6.69-2.84-6.69-6.5"/></defs><clipPath id="V"><use xlink:href="#U" overflow="visible"/></clipPath><g clip-path="url(#V)"><defs><path id="W" d="M-223-37h1781v6960H-223z"/></defs><clipPath id="X"><use xlink:href="#W" overflow="visible"/></clipPath><path clip-path="url(#X)" fill="#FFF" d="M74.81 16.77h21.97v23.04H74.81z"/></g><defs><path id="Y" d="M94.25 33.48V23.11c0-.76.53-1.33 1.3-1.33.74 0 1.28.57 1.28 1.33v3.72h5.57v-3.74c0-.76.53-1.32 1.3-1.32.74 0 1.28.55 1.28 1.32v10.39c0 .76-.55 1.33-1.28 1.33-.74 0-1.3-.57-1.3-1.33v-4.33h-5.57v4.33c0 .76-.55 1.33-1.28 1.33-.75 0-1.3-.57-1.3-1.33"/></defs><clipPath id="Z"><use xlink:href="#Y" overflow="visible"/></clipPath><g clip-path="url(#Z)"><defs><path id="aa" d="M-223-37h1781v6960H-223z"/></defs><clipPath id="ab"><use xlink:href="#aa" overflow="visible"/></clipPath><path clip-path="url(#ab)" fill="#FFF" d="M89.25 16.77h20.72v23.04H89.25z"/></g><defs><path id="ac" d="M107.82 33.31V23.28c0-.72.55-1.28 1.28-1.28h6.16c.69 0 1.18.5 1.18 1.16 0 .65-.52 1.16-1.18 1.16h-4.86v2.56h3.34c.65 0 1.12.48 1.12 1.11 0 .61-.48 1.09-1.12 1.09h-3.34v3.18h5.09c.69 0 1.18.52 1.18 1.16 0 .67-.52 1.16-1.18 1.16h-6.39c-.72 0-1.28-.55-1.28-1.27"/></defs><clipPath id="ad"><use xlink:href="#ac" overflow="visible"/></clipPath><g clip-path="url(#ad)"><defs><path id="ae" d="M-223-37h1781v6960H-223z"/></defs><clipPath id="af"><use xlink:href="#ae" overflow="visible"/></clipPath><path clip-path="url(#af)" fill="#FFF" d="M102.82 17h18.85v22.58h-18.85z"/></g><defs><path id="ag" d="M129.45 23.09v10.43c0 .72-.53 1.3-1.26 1.3-.63 0-.93-.36-1.28-.78l-5.61-7.21v6.67c0 .74-.55 1.32-1.28 1.32-.74 0-1.3-.57-1.3-1.32V23.07c0-.73.55-1.3 1.26-1.3.65 0 .93.36 1.32.84l5.59 7.15-.02-6.67c0-.74.55-1.32 1.3-1.32.73 0 1.28.57 1.28 1.32"/></defs><clipPath id="ah"><use xlink:href="#ag" overflow="visible"/></clipPath><g clip-path="url(#ah)"><defs><path id="ai" d="M-223-37h1781v6960H-223z"/></defs><clipPath id="aj"><use xlink:href="#ai" overflow="visible"/></clipPath><path clip-path="url(#aj)" fill="#FFF" d="M113.73 16.77h20.72v23.04h-20.72z"/></g></svg>