<svg xmlns="http://www.w3.org/2000/svg" viewBox="0 0 32 32"><path d="M29.3 3H25V1c0-.6-.4-1-1-1s-1 .4-1 1v2h-6V1c0-.6-.4-1-1-1s-1 .4-1 1v2H9V1c0-.6-.4-1-1-1S7 .4 7 1v2H2.7C1.2 3 0 4.2 0 5.7v23.7C0 30.8 1.2 32 2.7 32h26.7c1.5 0 2.7-1.2 2.7-2.7V5.7C32 4.2 30.8 3 29.3 3zm.7 26.3c0 .4-.3.7-.7.7H2.7c-.4 0-.7-.3-.7-.7V5.7c0-.4.3-.7.7-.7H7v2c0 .6.4 1 1 1s1-.4 1-1V5h6v2c0 .6.4 1 1 1s1-.4 1-1V5h6v2c0 .6.4 1 1 1s1-.4 1-1V5h4.3c.4 0 .7.3.7.7v23.6z"/><path d="M7 12h4v3H7zm0 5h4v3H7zm0 5h4v3H7zm7 0h4v3h-4zm0-5h4v3h-4zm0-5h4v3h-4zm7 10h4v3h-4zm0-5h4v3h-4zm0-5h4v3h-4z"/></svg>